<?xml version="1.0" ?><svg viewBox="0 0 32 32" xmlns="http://www.w3.org/2000/svg"><title/><g data-name="Layer 16" id="Layer_16"><path d="M10,6A3.22,3.22,0,0,0,7,9.4V22.6A3.22,3.22,0,0,0,10,26a3.22,3.22,0,0,0,3-3.4V9.4A3.22,3.22,0,0,0,10,6Zm1,16.6c0,.76-.46,1.4-1,1.4s-1-.64-1-1.4V9.4C9,8.64,9.46,8,10,8s1,.64,1,1.4Z"/><path d="M22,6a3.22,3.22,0,0,0-3,3.4V22.6A3.22,3.22,0,0,0,22,26a3.22,3.22,0,0,0,3-3.4V9.4A3.22,3.22,0,0,0,22,6Zm1,16.6c0,.76-.46,1.4-1,1.4s-1-.64-1-1.4V9.4c0-.76.46-1.4,1-1.4s1,.64,1,1.4Z"/></g></svg>